<svg width="434" height="127" viewBox="0 0 434 127" fill="none" xmlns="http://www.w3.org/2000/svg">
<g clip-path="url(#clip0)">
<path d="M57.2706 26.4263H24.2298C15.4374 26.4263 11 30.7067 11 39.1851V84.5614C11 85.6728 11.5952 86.357 12.8775 86.357H22.8653C24.0605 86.357 24.8299 85.6728 24.8299 84.5614V82.8386C24.8299 78.6358 26.5961 76.3451 30.9851 75.9035H57.2706C66.9147 75.9035 71.2698 71.7104 71.2698 62.5478V39.782C71.2698 30.6193 66.9147 26.4263 57.2706 26.4263ZM57.4544 58.6945C57.4544 63.664 56.3318 64.688 50.4379 64.688H36.4387C30.5496 64.688 26.7897 66.6584 24.8251 70.5117V42.524C24.8251 38.6706 25.7638 37.6417 30.4576 37.6417H50.4379C56.3318 37.6417 57.4544 38.6706 57.4544 43.6353V58.6945Z" fill="#8257E5"/>
<path d="M102.941 51.5119C95.3441 51.5119 92.097 55.3652 92.097 61.8732V84.7313C92.097 85.7601 91.5837 86.3571 90.3888 86.3571H81.34C80.1444 86.3571 79.5491 85.7601 79.5491 84.7313V42.9511C79.5491 41.9222 80.1444 41.3204 81.34 41.3204H88.9369C90.0499 41.3204 90.6451 41.9222 90.6451 42.9511V49.692C92.097 44.1303 96.2827 41.301 103.711 41.301H106.783C107.891 41.301 108.487 41.9028 108.487 42.9316V49.8861C108.487 50.9975 107.891 51.5119 106.783 51.5119H102.941Z" fill="#8257E5"/>
<path d="M161.842 74.1127C161.842 82.5911 158.086 86.3571 149.125 86.3571H126.928C118.049 86.3571 114.206 82.5911 114.206 74.1127V53.5744C114.206 45.1009 118.049 41.3301 126.928 41.3301H149.125C158.086 41.3301 161.842 45.1009 161.842 53.5744V74.1127ZM149.294 56.8212C149.294 52.366 148.442 51.5119 143.149 51.5119H132.986C127.611 51.5119 126.754 52.366 126.754 56.8212V70.8612C126.754 75.3115 127.611 76.1704 132.986 76.1704H143.149C148.442 76.1704 149.294 75.3115 149.294 70.8612V56.8212Z" fill="#8257E5"/>
<path d="M174.476 51.5119H170.203C169.09 51.5119 168.495 50.9975 168.495 49.8861V42.9511C168.495 41.9222 169.09 41.3204 170.203 41.3204H174.471V35.7588C174.476 27.2804 178.914 23 187.706 23H198.207C199.402 23 199.915 23.6018 199.915 24.6258V31.5609C199.915 32.6771 199.402 33.1866 198.207 33.1866H192.661C187.962 33.1866 187.024 34.2155 187.024 38.0688V41.3204H198.207C199.402 41.3204 199.915 41.9222 199.915 42.9511V49.8861C199.915 50.9975 199.402 51.5119 198.207 51.5119H187.024V84.7313C187.024 85.7601 186.429 86.3571 185.233 86.3571H176.184C174.989 86.3571 174.476 85.7601 174.476 84.7313V51.5119Z" fill="#8257E5"/>
<path d="M209.307 51.5119H205.044C203.936 51.5119 203.341 50.9975 203.341 49.8861V42.9511C203.341 41.9222 203.936 41.3204 205.044 41.3204H209.317V35.7588C209.307 27.2804 213.754 23 222.537 23H233.038C234.233 23 234.746 23.6018 234.746 24.6258V31.5609C234.746 32.6771 234.233 33.1866 233.038 33.1866H227.488C222.794 33.1866 221.855 34.2155 221.855 38.0688V41.3204H233.038C234.233 41.3204 234.746 41.9222 234.746 42.9511V49.8861C234.746 50.9975 234.233 51.5119 233.038 51.5119H221.855V84.7313C221.855 85.7601 221.255 86.3571 220.06 86.3571H211.01C209.815 86.3571 209.307 85.7601 209.307 84.7313V51.5119Z" fill="#8257E5"/>
<path d="M272.902 103.823H254.291C245.929 103.823 242.343 100.572 242.343 92.5203V91.6663C242.319 91.4367 242.345 91.2039 242.423 90.9864C242.5 90.7683 242.624 90.5706 242.788 90.408C242.952 90.2453 243.15 90.1216 243.368 90.0463C243.586 89.9711 243.817 89.9455 244.046 89.9723H252.757C253.952 89.9723 254.547 90.5744 254.547 91.6855V92.1128C254.547 93.8259 255.491 94.5102 257.368 94.5102H268.125C273.245 94.5102 274.527 93.2289 274.527 88.8613V75.3551C272.563 79.2085 268.808 81.1788 262.914 81.1788H254.204C245.324 81.1788 241.394 77.4128 241.394 68.9345V42.9511C241.383 42.7267 241.42 42.5024 241.503 42.2938C241.586 42.085 241.713 41.8968 241.875 41.7419C242.037 41.587 242.231 41.4692 242.443 41.3964C242.655 41.3236 242.88 41.2977 243.103 41.3204H252.239C253.347 41.3204 253.947 41.9222 253.947 42.9511V65.7072C253.947 70.1574 254.886 71.0164 260.18 71.0164H266.669C272.301 71.0164 274.523 68.7015 274.523 63.994V42.9511C274.523 41.9222 275.118 41.3204 276.231 41.3204H285.371C285.59 41.2992 285.811 41.3269 286.017 41.4015C286.224 41.476 286.412 41.5955 286.566 41.7514C286.721 41.9074 286.84 42.0958 286.913 42.3033C286.987 42.5107 287.015 42.7319 286.993 42.9511V90.2102C286.988 99.1936 282.207 103.823 272.902 103.823Z" fill="#8257E5"/>
</g>
<path d="M337.928 79.072H319.064L316.04 88H303.152L321.44 37.456H335.696L353.984 88H340.952L337.928 79.072ZM334.76 69.568L328.496 51.064L322.304 69.568H334.76ZM398.07 53.728C398.07 56.656 397.398 59.344 396.054 61.792C394.71 64.192 392.646 66.136 389.862 67.624C387.078 69.112 383.622 69.856 379.494 69.856H371.862V88H359.55V37.456H379.494C383.526 37.456 386.934 38.152 389.718 39.544C392.502 40.936 394.59 42.856 395.982 45.304C397.374 47.752 398.07 50.56 398.07 53.728ZM378.558 60.064C380.91 60.064 382.662 59.512 383.814 58.408C384.966 57.304 385.542 55.744 385.542 53.728C385.542 51.712 384.966 50.152 383.814 49.048C382.662 47.944 380.91 47.392 378.558 47.392H371.862V60.064H378.558ZM416.792 37.456V88H404.48V37.456H416.792Z" fill="#303030"/>
<defs>
<clipPath id="clip0">
<rect width="276" height="81" fill="white" transform="translate(11 23)"/>
</clipPath>
</defs>
</svg>
